<svg width="25" height="25" viewBox="0 0 25 25" fill="none" xmlns="http://www.w3.org/2000/svg">
    <circle cx="6.5" cy="10.5" r="6.5" fill="#009688" fill-opacity="0.2"/>
    <path d="M22.8744 6.13721C21.7344 5.22866 20.1253 4.48481 18.0919 3.92642C14.1813 2.85249 9.77124 2.73657 8.05669 2.73657C3.61421 2.73657 0 6.35083 0 10.7933V14.2069C0 18.6494 3.61421 22.2636 8.05669 22.2636C10.1052 22.2636 11.6436 21.6219 13.2724 20.9425C14.9567 20.2399 16.6984 19.5135 19.1479 19.5135C22.3748 19.5135 25 16.8882 25 13.6614V10.2478C25 8.64434 24.2848 7.26133 22.8744 6.13721ZM22.4632 14.4846C22.648 14.681 22.9571 14.6902 23.1534 14.5054C23.4846 14.1936 23.7759 13.8462 24.0234 13.4721V13.6614C24.0234 16.3498 21.8363 18.5369 19.1479 18.5369C16.5029 18.5369 14.6695 19.3017 12.8964 20.0412C11.3604 20.6819 9.90967 21.2871 8.05669 21.2871C4.30571 21.2871 1.22715 18.3548 0.991602 14.6622C2.3627 17.156 5.01548 18.85 8.05669 18.85C10.1052 18.85 11.6436 18.2083 13.2724 17.5289C14.9567 16.8263 16.6984 16.0998 19.1479 16.0998C19.3299 16.0998 19.5137 16.0912 19.6944 16.0743C19.9629 16.0492 20.1602 15.8111 20.135 15.5426C20.1099 15.2742 19.8715 15.077 19.6033 15.1021C19.4528 15.1161 19.2996 15.1233 19.1479 15.1233C16.5029 15.1233 14.6695 15.888 12.8964 16.6276C11.3604 17.2683 9.90967 17.8734 8.05669 17.8734C4.15269 17.8734 0.976562 14.6973 0.976562 10.7934C0.976562 6.88936 4.15269 3.71318 8.05669 3.71318C9.73164 3.71318 14.0372 3.82573 17.8333 4.86816C21.9408 5.99614 24.0234 7.8061 24.0234 10.2478C24.0234 11.5806 23.4623 12.8732 22.484 13.7943C22.2876 13.9792 22.2783 14.2882 22.4632 14.4846Z" fill="#1C1C1C"/>
    <path d="M22.0617 14.7962C21.9469 14.5522 21.6559 14.4475 21.412 14.5623C21.4085 14.564 21.4038 14.5663 21.4004 14.568C21.1592 14.6886 21.0615 14.9819 21.182 15.223C21.2676 15.3941 21.44 15.4931 21.6192 15.4931C21.6915 15.4931 21.765 15.4769 21.8342 15.4429C22.0736 15.326 22.1755 15.0381 22.0617 14.7962Z" fill="#1C1C1C"/>
    <path d="M11.5815 4.82735L11.5563 4.8253C11.2871 4.80431 11.0522 5.00441 11.0307 5.27325C11.0093 5.54205 11.2098 5.77735 11.4786 5.79884L11.5036 5.80079C11.5168 5.80187 11.5299 5.8024 11.543 5.8024C11.795 5.8024 12.0088 5.60856 12.0293 5.35304C12.0507 5.08419 11.8503 4.84889 11.5815 4.82735Z" fill="#1C1C1C"/>
    <path d="M22.742 8.93224C22.2577 7.97501 21.18 7.14777 19.5389 6.47355C18.211 5.92799 16.7588 5.58336 15.7744 5.39025C15.1844 5.27457 14.5661 5.17125 13.9367 5.08326C13.6698 5.04557 13.4229 5.23209 13.3855 5.49923C13.3482 5.76632 13.5344 6.01305 13.8015 6.0504C14.4133 6.13595 15.0139 6.23629 15.5865 6.3486C18.9405 7.00636 21.2309 8.10875 21.8706 9.37301C22.005 9.63868 22.0703 9.92477 22.0703 10.2476C22.0703 11.859 20.7593 13.17 19.1479 13.17C17.5186 13.17 15.9364 13.4362 14.3109 13.984C13.6108 14.22 12.931 14.5021 12.2737 14.775C11.8388 14.9554 11.3892 15.142 10.943 15.3111C9.81673 15.738 8.9535 15.9201 8.05667 15.9201C5.22962 15.9201 2.92962 13.6201 2.92962 10.7931C2.92962 7.96608 5.22962 5.66608 8.05667 5.66608C8.60818 5.66608 9.1681 5.67653 9.72073 5.69713C9.81453 5.7006 9.90843 5.70436 10.0024 5.70851C10.2716 5.72072 10.4998 5.51163 10.5117 5.2422C10.5236 4.97281 10.3148 4.74474 10.0454 4.73287C9.94925 4.72863 9.85306 4.72477 9.75706 4.7212C9.19236 4.70016 8.62024 4.68951 8.05662 4.68951C4.69109 4.68951 1.95301 7.42755 1.95301 10.7931C1.95301 14.1586 4.69104 16.8966 8.05662 16.8966C9.07884 16.8966 10.0455 16.6956 11.289 16.2243C11.7495 16.0498 12.2062 15.8602 12.648 15.6769C13.2902 15.4104 13.9543 15.1347 14.6228 14.9094C16.1461 14.3961 17.6263 14.1465 19.1479 14.1465C21.2978 14.1466 23.0469 12.3975 23.0469 10.2477C23.0469 9.76808 22.9471 9.3378 22.742 8.93224Z" fill="#1C1C1C"/>
    <path d="M8.52434 6.6319C7.1593 6.6319 6.0487 7.63898 6.0487 8.87687C6.0487 10.1148 7.1593 11.1218 8.52434 11.1218C9.88943 11.1218 11 10.1148 11 8.87687C11 7.63898 9.88943 6.6319 8.52434 6.6319ZM8.52434 10.1452C7.69773 10.1452 7.02527 9.57623 7.02527 8.87682C7.02527 8.17745 7.69773 7.60841 8.52434 7.60841C9.35095 7.60841 10.0234 8.1774 10.0234 8.87682C10.0234 9.57623 9.35095 10.1452 8.52434 10.1452Z" fill="#1C1C1C"/>
</svg>
