<svg width="25" height="25" viewBox="0 0 25 25" fill="none" xmlns="http://www.w3.org/2000/svg">
    <g clip-path="url(#clip0)">
        <circle cx="8.5" cy="9.5" r="8.5" fill="#009688" fill-opacity="0.2"/>
        <path d="M12.9273 14.4104C12.8821 14.2925 12.8283 14.1773 12.7692 14.0653C12.7311 13.993 12.6866 13.9246 12.6427 13.8546C12.6117 13.8046 12.5804 13.7552 12.5468 13.7068C12.4963 13.6343 12.4436 13.5648 12.3877 13.4964C12.3555 13.4571 12.321 13.4199 12.2874 13.3821C12.1819 13.2644 12.0696 13.1555 11.9489 13.0533C11.9056 13.0165 11.864 12.9772 11.8188 12.9429C11.7617 12.8994 11.703 12.8616 11.6439 12.8219C11.5743 12.7754 11.5035 12.7315 11.4312 12.6909C11.3818 12.6634 11.3328 12.6364 11.2819 12.6117C11.1527 12.5488 11.0217 12.4923 10.8868 12.4508C10.7768 12.4168 10.6677 12.3934 10.559 12.3752C10.5367 12.3716 10.5143 12.3682 10.4918 12.3655C10.2698 12.3352 10.0529 12.3375 9.84734 12.3724C9.84276 12.3733 9.83761 12.3743 9.83284 12.3752C9.562 12.4237 9.31061 12.525 9.09565 12.6835C9.0741 12.6993 9.05922 12.7214 9.03824 12.7376C8.98045 12.7842 8.92761 12.837 8.87631 12.8916C8.84045 12.9297 8.80135 12.9642 8.76949 13.0058C8.70197 13.0926 8.6417 13.1862 8.59001 13.2883C8.58906 13.2902 8.58944 13.2921 8.58849 13.294C8.45383 13.5622 8.37925 13.8704 8.37925 14.2099C8.37925 15.4695 9.35944 16.7604 10.6108 17.148C10.8472 17.2212 11.0827 17.2571 11.3093 17.2571C11.7162 17.2571 12.0951 17.1409 12.402 16.9149C12.8638 16.5744 13.1184 16.032 13.1184 15.3885C13.1184 15.0587 13.0484 14.7279 12.9268 14.4109C12.9273 14.4108 12.9273 14.4108 12.9273 14.4104ZM9.55647 13.5261C9.60072 13.4796 9.65145 13.4409 9.706 13.4073C9.73728 13.3878 9.77142 13.3728 9.80595 13.3579C9.85344 13.3369 9.90246 13.3178 9.9551 13.3053C9.99382 13.2963 10.0344 13.2925 10.0755 13.2885C10.1361 13.282 10.1968 13.2759 10.2616 13.2797C10.2788 13.2805 10.2965 13.282 10.3143 13.2843C10.4098 13.2936 10.5088 13.3108 10.6112 13.3425C10.7077 13.3724 10.8016 13.4134 10.8939 13.4592C10.913 13.4683 10.9317 13.4783 10.9504 13.488C11.1379 13.5887 11.3141 13.7188 11.4709 13.8714C11.4787 13.8792 11.4871 13.8866 11.4951 13.895C11.6467 14.0463 11.7781 14.2177 11.8859 14.3997C11.9017 14.4272 11.9176 14.4542 11.9326 14.4823C11.9424 14.5004 11.9492 14.5195 11.9592 14.5378C11.7268 14.797 11.3356 14.8735 10.887 14.736C10.3314 14.5633 9.82121 14.1086 9.53644 13.5458C9.54292 13.5383 9.54998 13.5328 9.55647 13.5261ZM11.8485 16.1649C11.6084 16.3421 11.267 16.3742 10.887 16.2576C10.2919 16.073 9.76761 15.5605 9.50039 14.9812C9.83208 15.274 10.2113 15.5021 10.6108 15.6261C10.8468 15.699 11.0801 15.7345 11.3034 15.7345C11.6191 15.7345 11.9143 15.6606 12.1732 15.5269C12.1447 15.802 12.0351 16.0278 11.8485 16.1649Z" fill="#1C1C1C"/>
        <path d="M19.3382 15.7793C18.8318 15.6227 18.3306 15.6902 17.9602 15.9635C17.6054 16.2252 17.4019 16.6557 17.4019 17.1449C17.4019 18.0845 18.1314 19.0462 19.0628 19.3344C19.2423 19.3899 19.4208 19.4176 19.594 19.4176C19.9081 19.4176 20.202 19.327 20.4408 19.1507C20.7958 18.8892 20.9991 18.4591 20.9991 17.9699C20.9986 17.0297 20.2692 16.0671 19.3382 15.7793ZM19.8868 18.4C19.7552 18.4969 19.5598 18.5127 19.3378 18.4437C18.7937 18.2754 18.3342 17.6803 18.3342 17.1449C18.3342 17.0088 18.3651 16.8236 18.5133 16.7139C18.5911 16.657 18.6905 16.6277 18.8047 16.6277C18.8846 16.6277 18.9709 16.6416 19.0622 16.67C19.6064 16.8384 20.0659 17.4335 20.0659 17.9695C20.0659 18.1057 20.0352 18.2907 19.8868 18.4Z" fill="#1C1C1C"/>
        <path d="M6.28005 14.8465C5.77403 14.6897 5.27221 14.7574 4.90199 15.0306C4.54704 15.2923 4.34371 15.7227 4.34371 16.212C4.34371 17.1517 5.07308 18.1132 6.00444 18.4016C6.18411 18.4569 6.36264 18.4846 6.53564 18.4846C6.84997 18.4846 7.1437 18.3942 7.3825 18.2177C7.73746 17.9563 7.94078 17.5261 7.94078 17.0369C7.9404 16.0968 7.21084 15.1341 6.28005 14.8465ZM6.82842 17.4668C6.697 17.5639 6.5015 17.5792 6.27948 17.5107C5.73531 17.3423 5.27602 16.7474 5.27602 16.2118C5.27602 16.0758 5.30673 15.8906 5.45493 15.7809C5.53294 15.7241 5.63232 15.6947 5.74657 15.6947C5.82629 15.6947 5.91251 15.7086 6.00406 15.737C6.54823 15.9055 7.00752 16.5006 7.00752 17.0363C7.00752 17.1727 6.97681 17.3577 6.82842 17.4668Z" fill="#1C1C1C"/>
        <path d="M16.0738 19.0141C15.6959 18.898 15.3163 18.9489 15.0327 19.1581C14.76 19.3595 14.6038 19.687 14.6038 20.0573C14.6038 20.7359 15.1285 21.4294 15.7981 21.6369C15.9305 21.6779 16.0631 21.6985 16.1918 21.6985C16.4306 21.6985 16.6549 21.6291 16.8392 21.4933C17.1119 21.2919 17.2687 20.964 17.2687 20.5936C17.2676 19.9146 16.7429 19.2213 16.0738 19.0141ZM16.2849 20.7414C16.2439 20.7718 16.1632 20.7733 16.0738 20.7458C15.792 20.6585 15.5364 20.3302 15.5364 20.0569C15.5364 20.0233 15.5416 19.9417 15.5864 19.9091C15.6074 19.8932 15.6394 19.8852 15.6787 19.8852C15.714 19.8852 15.7547 19.8919 15.7976 19.9049C16.0793 19.992 16.3347 20.3199 16.3347 20.5932C16.3349 20.6268 16.3297 20.7079 16.2849 20.7414Z" fill="#1C1C1C"/>
        <path d="M15.4652 16.092C15.5976 16.133 15.7301 16.1536 15.8593 16.1536C16.0977 16.1536 16.3224 16.0839 16.5066 15.9483C16.7795 15.7469 16.9358 15.4194 16.9358 15.0492C16.9358 14.3706 16.411 13.677 15.7414 13.4695C15.3622 13.3524 14.9836 13.4047 14.7007 13.6137C14.428 13.8151 14.2712 14.143 14.2712 14.5132C14.2708 15.1909 14.7955 15.8848 15.4652 16.092ZM15.2541 14.3645C15.2754 14.3486 15.3076 14.3408 15.3462 14.3408C15.3817 14.3408 15.4223 14.3473 15.4652 14.3603C15.7469 14.4474 16.0023 14.7759 16.0023 15.049C16.0023 15.0828 15.9972 15.1642 15.9525 15.197C15.9125 15.2273 15.8308 15.2281 15.7412 15.2012C15.4595 15.1141 15.2041 14.7862 15.2041 14.5129C15.2035 14.4793 15.2087 14.3976 15.2541 14.3645Z" fill="#1C1C1C"/>
        <path d="M5.27616 10.1511C5.27616 9.42492 4.71406 8.68201 3.99632 8.45904C3.59387 8.33354 3.19199 8.38999 2.89349 8.61068C2.60567 8.82277 2.44011 9.16934 2.44011 9.56168C2.44011 10.2882 3.00259 11.0311 3.72033 11.2531C3.86166 11.297 4.00242 11.3184 4.13899 11.3184C4.39133 11.3184 4.62918 11.2451 4.82316 11.1021C5.11155 10.8898 5.27616 10.5434 5.27616 10.1511ZM4.26964 10.3508C4.21223 10.3931 4.10885 10.3979 3.99632 10.3624C3.66444 10.2594 3.37281 9.88574 3.37281 9.56168C3.37281 9.50694 3.38272 9.40871 3.44662 9.36103C3.47828 9.33776 3.52349 9.32612 3.5767 9.32612C3.62 9.32612 3.66864 9.33394 3.72033 9.34977C4.0524 9.45296 4.34346 9.82699 4.34346 10.1511C4.34327 10.2056 4.33392 10.304 4.26964 10.3508Z" fill="#1C1C1C"/>
        <path d="M23.0113 16.4953C23.0188 16.463 23.0329 16.4356 23.0439 16.4056C23.0548 16.3768 23.0623 16.3459 23.0758 16.3198C23.0766 16.3179 23.0785 16.3165 23.0794 16.3148C23.1052 16.2668 23.1368 16.2238 23.1727 16.1851C23.2198 16.1342 23.2763 16.0941 23.3396 16.0629C23.3524 16.0564 23.3663 16.0516 23.3793 16.0461C23.4399 16.0209 23.5057 16.0037 23.577 15.9957C23.5868 15.995 23.5957 15.9921 23.6059 15.9912C23.6656 15.986 23.7287 15.9892 23.793 15.9969C23.8004 15.9976 23.8073 15.9969 23.8149 15.9976H23.8153C23.8204 15.9982 23.8269 16.0011 23.8326 16.0018C23.8904 16.0112 23.9478 16.0253 24.0114 16.0457C24.0485 16.0579 24.0896 16.0756 24.1302 16.0924C24.1548 16.1027 24.18 16.1111 24.2048 16.1218C24.2315 16.134 24.2589 16.1405 24.2868 16.147C24.2967 16.1493 24.306 16.154 24.3158 16.1558C24.3497 16.1619 24.3839 16.1628 24.4178 16.1615C24.422 16.1615 24.4264 16.1622 24.4306 16.1619C24.4668 16.1596 24.5029 16.1521 24.5378 16.1409C24.5397 16.1405 24.5414 16.1405 24.5437 16.1401C24.5666 16.1327 24.5876 16.1199 24.6091 16.1088C24.6227 16.1018 24.6372 16.0976 24.6496 16.0892C24.7447 16.0282 24.8109 15.9349 24.8428 15.83C24.8554 15.7871 24.8638 15.7432 24.8638 15.6976V14.6556C24.8638 13.652 24.3923 12.6867 23.6017 12.0687L15.4985 4.4036C15.3274 4.24167 15.063 4.23232 14.882 4.38205C14.7361 4.5024 14.5202 4.5272 14.2724 4.45014C13.6931 4.27066 13.2039 3.63684 13.2039 3.06597C13.2039 2.94791 13.2268 2.843 13.2716 2.7545C13.3643 2.57025 13.3252 2.34728 13.1761 2.20557L11.7862 0.8914C11.774 0.880147 11.7616 0.869465 11.7484 0.859738C10.6631 0.032328 9.3316 -0.2265 8.33787 0.20914L1.4405 3.53633C0.656007 3.87526 0.148651 4.67006 0.146744 5.56689L0.146362 5.5688V12.9165C0.146362 13.055 0.20797 13.186 0.314209 13.2751C0.42064 13.3632 0.559495 13.3996 0.696634 13.3754C0.851892 13.346 1.01745 13.3586 1.18682 13.4113C1.88682 13.6281 2.47829 14.3949 2.47829 15.0865C2.47829 15.3533 2.38636 15.5683 2.21946 15.6913C2.03273 15.829 1.76475 15.8533 1.46244 15.7596C1.27723 15.7022 1.08936 15.5977 0.905298 15.4495C0.764917 15.3375 0.573228 15.3142 0.410912 15.3926C0.248978 15.4701 0.146362 15.6335 0.146362 15.8128V16.8214C0.146362 17.8247 0.825952 18.6954 1.78058 18.9327L22.1534 24.934C22.3306 24.9786 22.5097 25.0002 22.6873 25.0002C23.1674 25.0002 23.636 24.8411 24.0255 24.537C24.559 24.1207 24.8643 23.4943 24.8643 22.8176V18.9281C24.8643 18.8133 24.8229 18.7074 24.7529 18.626C24.6829 18.5438 24.5849 18.4856 24.4718 18.4673C24.4619 18.4659 24.4521 18.4617 24.4424 18.4598C24.0291 18.3824 23.6205 18.091 23.3417 17.7108C23.2084 17.5285 23.1099 17.3261 23.0499 17.1182C23.0331 17.0593 23.0144 17.0011 23.0045 16.9418C22.9909 16.8584 22.9854 16.7772 22.9867 16.7013C22.9877 16.661 22.9953 16.6252 22.9999 16.5878C23.0035 16.5569 23.0045 16.5241 23.0113 16.4953ZM1.82808 4.38414L8.72754 1.05562C9.39493 0.764179 10.349 0.972653 11.1638 1.58587L12.3158 2.67535C12.2865 2.80047 12.272 2.93055 12.272 3.06578C12.272 4.04178 13.0298 5.04085 13.9976 5.34068C14.3897 5.46237 14.7782 5.45207 15.1094 5.31837L22.532 12.3405L14.5087 9.95076C14.3039 9.15653 13.6556 8.43174 12.8572 8.18493C12.3345 8.02318 11.8157 8.09261 11.4314 8.3749C11.2426 8.51375 11.098 8.69514 11.0005 8.90648L1.60377 6.10973C1.315 6.05422 1.14715 5.85548 1.10576 5.51826C1.1029 5.49728 1.0926 5.4782 1.0865 5.45779C1.12426 4.98153 1.39892 4.56973 1.82808 4.38414ZM13.6495 10.46C13.6495 10.6078 13.6155 10.8098 13.4522 10.9296C13.3086 11.036 13.0979 11.0532 12.8572 10.979C12.7849 10.9567 12.7135 10.9273 12.6451 10.8915C12.2323 10.6778 11.8983 10.2454 11.8112 9.81228C11.7967 9.74095 11.7892 9.66942 11.7892 9.59904C11.7911 9.58893 11.7972 9.538 11.798 9.52809C11.799 9.51702 11.7948 9.50672 11.7953 9.49604C11.8096 9.36577 11.8569 9.22043 11.9859 9.12525C12.0713 9.06212 12.1804 9.03046 12.3054 9.03046C12.3912 9.03046 12.4845 9.04553 12.5819 9.07566C13.1238 9.2437 13.581 9.80789 13.6388 10.3475C13.6392 10.3517 13.6382 10.3555 13.6382 10.3597L13.6495 10.46ZM23.9305 22.8178C23.9305 23.205 23.7558 23.5639 23.4502 23.8018C23.1447 24.0411 22.7554 24.1226 22.3972 24.0347L2.02491 18.0334C1.46797 17.8939 1.07906 17.3957 1.07906 16.8212V16.6137C1.11492 16.6267 1.15097 16.6393 1.18682 16.6501C1.76971 16.8312 2.34707 16.7545 2.77241 16.4417C3.18382 16.1384 3.41042 15.6568 3.41042 15.0863C3.41042 13.9858 2.55459 12.8585 1.46244 12.5203C1.33464 12.4807 1.2059 12.4532 1.07868 12.4393V6.92264C1.17423 6.96365 1.2759 6.99436 1.38233 7.01438L10.8708 9.84108C10.8737 9.86359 10.8811 9.88552 10.885 9.90784C10.8928 9.95686 10.9044 10.0053 10.9157 10.0543C10.9311 10.1215 10.9488 10.1873 10.9708 10.2535C10.987 10.3032 11.0057 10.3519 11.0257 10.4003C11.0515 10.4633 11.0795 10.5252 11.1106 10.5865C11.135 10.6349 11.1606 10.682 11.188 10.7286C11.2231 10.7879 11.2605 10.8443 11.3 10.9008C11.3313 10.9454 11.3626 10.9899 11.3965 11.0332C11.44 11.0877 11.4865 11.1387 11.5342 11.1894C11.571 11.2291 11.6069 11.2691 11.646 11.3059C11.6982 11.3557 11.7543 11.4005 11.8108 11.4459C11.8503 11.478 11.8886 11.5115 11.93 11.5415C11.9948 11.5876 12.0635 11.6267 12.1326 11.666C12.1697 11.6874 12.2052 11.7122 12.2439 11.7317C12.353 11.7868 12.4654 11.8339 12.5815 11.8697C12.6987 11.9062 12.8152 11.9266 12.9304 11.9397C12.9617 11.9434 12.992 11.9447 13.0227 11.947C13.0586 11.9495 13.0956 11.9556 13.1314 11.9556C13.1953 11.9556 13.2573 11.9489 13.3193 11.942C13.3309 11.9405 13.3431 11.9411 13.3548 11.9392C13.4616 11.9243 13.5636 11.8963 13.6621 11.8604C13.6849 11.8518 13.7073 11.8425 13.7298 11.8327C13.8272 11.7914 13.9215 11.7433 14.0067 11.6803C14.0893 11.6193 14.1606 11.548 14.2259 11.4719C14.2432 11.4522 14.2591 11.4318 14.2753 11.4112C14.3317 11.338 14.3827 11.2602 14.4237 11.1757C14.4273 11.1682 14.4321 11.1621 14.4357 11.1547C14.4698 11.082 14.4988 11.0065 14.5211 10.9267L22.9442 13.434C23.5164 13.5566 23.9314 14.0695 23.9314 14.6549V15.0724C23.7874 15.0531 23.648 15.0508 23.5132 15.0625C23.3976 15.0728 23.2869 15.0956 23.1811 15.1269C23.1443 15.1376 23.1094 15.1529 23.0739 15.1664C23.0001 15.1941 22.9289 15.2257 22.8606 15.2641C22.8277 15.2826 22.7954 15.3018 22.7638 15.3228C22.6924 15.3703 22.6266 15.4239 22.5637 15.4832C22.5478 15.4981 22.5286 15.5078 22.5133 15.5237C22.5082 15.5288 22.5053 15.5359 22.5003 15.5414C22.4918 15.5504 22.482 15.5565 22.4736 15.5658C22.4733 15.5662 22.4733 15.5662 22.4727 15.5666C22.4284 15.6156 22.3968 15.6762 22.3584 15.7314C22.3277 15.776 22.2919 15.817 22.2657 15.8651C22.2612 15.8735 22.2545 15.8796 22.2503 15.8876C22.2125 15.9599 22.1902 16.0396 22.1631 16.1174C22.1496 16.1571 22.1296 16.1935 22.1189 16.2345C22.0914 16.3371 22.0786 16.4466 22.0695 16.5573C22.0666 16.5883 22.0582 16.6173 22.0567 16.6492C22.0567 16.6541 22.0548 16.6589 22.0548 16.6641C22.0515 16.7838 22.0634 16.9094 22.0809 17.0358C22.0838 17.0549 22.0815 17.0726 22.0842 17.0917C22.1061 17.2246 22.1412 17.3553 22.1845 17.484C22.1877 17.4932 22.1881 17.5025 22.1915 17.5115C22.2068 17.5561 22.2274 17.6025 22.2625 17.678C22.2862 17.7339 22.309 17.79 22.3365 17.8445C22.3464 17.8655 22.3542 17.8869 22.3655 17.9079C22.392 17.9578 22.4237 18.0044 22.454 18.0515C22.4807 18.095 22.5072 18.1379 22.5356 18.1798L22.5353 18.1802C22.5539 18.2115 22.5734 18.2428 22.5927 18.268C22.6686 18.3719 22.7531 18.4694 22.8244 18.544C22.8341 18.5556 22.8545 18.5804 22.8658 18.5916C22.898 18.6246 22.9329 18.6527 22.9661 18.684C22.9816 18.6983 22.9974 18.7128 23.0132 18.7272C23.0911 18.7976 23.1714 18.8625 23.2543 18.9231C23.2694 18.9338 23.2837 18.9451 23.2988 18.9556C23.3859 19.0168 23.4754 19.0719 23.5669 19.1211C23.5809 19.1286 23.594 19.1375 23.6079 19.1444C23.7142 19.1995 23.8223 19.2489 23.9326 19.2876V22.8176H23.9305V22.8178Z" fill="#1C1C1C"/>
    </g>
    <defs>
        <clipPath id="clip0">
            <rect width="25" height="25" fill="white"/>
        </clipPath>
    </defs>
</svg>
