<svg width="30" height="30" viewBox="0 0 30 30" fill="none" xmlns="http://www.w3.org/2000/svg">
    <circle cx="15" cy="15" r="14.5" fill="#FBFBFB" stroke="#E5E5E5"/>
    <g opacity="0.1">
        <path d="M22.7241 8.65527H7.27586C7.12359 8.65527 7 8.77858 7 8.93114V21.0691C7 21.2216 7.12359 21.3449 7.27586 21.3449H22.7241C22.8764 21.3449 23 21.2216 23 21.0691V8.93114C23 8.77858 22.8764 8.65527 22.7241 8.65527ZM22.4483 20.7932H7.55172V9.207H22.4483V20.7932Z" fill="black"/>
        <path d="M11.4137 14.762C12.2609 14.762 12.95 14.0729 12.95 13.226C12.95 12.3786 12.2609 11.6895 11.4137 11.6895C10.5665 11.6895 9.87744 12.3786 9.87744 13.2257C9.87744 14.0729 10.5665 14.762 11.4137 14.762ZM11.4137 12.2412C11.9566 12.2412 12.3983 12.6831 12.3983 13.2257C12.3983 13.7684 11.9566 14.2103 11.4137 14.2103C10.8708 14.2103 10.4292 13.7686 10.4292 13.226C10.4292 12.6834 10.8708 12.2412 11.4137 12.2412Z" fill="black"/>
        <path d="M8.93104 19.6898C8.99559 19.6898 9.06069 19.6672 9.11311 19.6212L13.6132 15.6592L16.4552 18.5009C16.563 18.6087 16.7374 18.6087 16.8452 18.5009C16.9531 18.393 16.9531 18.2187 16.8452 18.1108L15.5192 16.7847L18.0519 14.0112L21.1584 16.8589C21.2706 16.9618 21.4452 16.9541 21.5481 16.8418C21.651 16.7296 21.6436 16.5549 21.531 16.4521L18.2207 13.4176C18.1666 13.3682 18.0946 13.3436 18.0221 13.3453C17.949 13.3486 17.88 13.3809 17.8306 13.4349L15.1288 16.3941L13.8204 15.0857C13.7172 14.9828 13.5523 14.9776 13.443 15.0736L8.74869 19.2068C8.63421 19.3075 8.62318 19.4818 8.72386 19.5963C8.77849 19.6584 8.85462 19.6898 8.93104 19.6898Z" fill="black"/>
    </g>
</svg>
