<svg width="136" height="126" viewBox="0 0 136 126" fill="none" xmlns="http://www.w3.org/2000/svg">
    <rect x="0.5" y="0.5" width="135" height="125" rx="14.5" fill="#FBFBFB" stroke="#E5E5E5"/>
    <g opacity="0.1">
        <path d="M92.1379 43.1724H43.8621C43.3862 43.1724 43 43.5577 43 44.0344V81.9655C43 82.4422 43.3862 82.8275 43.8621 82.8275H92.1379C92.6138 82.8275 93 82.4422 93 81.9655V44.0344C93 43.5577 92.6138 43.1724 92.1379 43.1724ZM91.2759 81.1034H44.7241V44.8965H91.2759V81.1034Z" fill="black"/>
        <path d="M56.793 62.257C59.4405 62.257 61.5939 60.1036 61.5939 57.457C61.5939 54.8087 59.4405 52.6553 56.793 52.6553C54.1456 52.6553 51.9922 54.8087 51.9922 57.4561C51.9922 60.1036 54.1456 62.257 56.793 62.257ZM56.793 54.3794C58.4896 54.3794 59.8698 55.7604 59.8698 57.4561C59.8698 59.1518 58.4896 60.5329 56.793 60.5329C55.0965 60.5329 53.7163 59.1527 53.7163 57.457C53.7163 55.7613 55.0965 54.3794 56.793 54.3794Z" fill="black"/>
        <path d="M49.0344 77.6551C49.2361 77.6551 49.4396 77.5844 49.6034 77.4404L63.6663 65.0594L72.5473 73.9396C72.8844 74.2766 73.4292 74.2766 73.7663 73.9396C74.1034 73.6025 74.1034 73.0577 73.7663 72.7206L69.6223 68.5766L77.537 59.9094L87.2448 68.8085C87.5956 69.1301 88.1413 69.106 88.4629 68.7551C88.7844 68.4042 88.7611 67.8585 88.4094 67.537L78.0646 58.0542C77.8956 57.8999 77.6706 57.8232 77.4439 57.8284C77.2154 57.8387 76.9999 57.9396 76.8456 58.1085L68.4025 67.356L64.3137 63.2672C63.9913 62.9456 63.4758 62.9292 63.1344 63.2292L48.4646 76.1456C48.1068 76.4603 48.0723 77.0051 48.387 77.3629C48.5577 77.5568 48.7956 77.6551 49.0344 77.6551Z" fill="black"/>
    </g>
</svg>
