  <svg width="24" height="24" viewBox="0 0 20 20" fill="none" xmlns="http://www.w3.org/2000/svg">
    <path d="M18.7641 19.3259H18.2023V1.68539C18.2023 1.49918 18.0514 1.34832 17.8653 1.34832H11.5731C11.3869 1.34832 11.236 1.49918 11.236 1.68539V3.14605H10.5619V1.68539C10.5619 1.49918 10.411 1.34832 10.2248 1.34832H8.76413V0.33707C8.76413 0.150859 8.61319 0 8.42706 0C8.24092 0 8.08999 0.150859 8.08999 0.33707V1.34832H6.62932C6.44315 1.34832 6.29225 1.49918 6.29225 1.68539V3.14605H5.281C5.09483 3.14605 4.94393 3.29691 4.94393 3.48312V6.29211H2.13494C1.94877 6.29211 1.79787 6.44297 1.79787 6.62918V19.3258H1.236C1.04982 19.3258 0.898926 19.4767 0.898926 19.6629C0.898926 19.8491 1.04986 20 1.236 20H18.7641C18.9503 20 19.1012 19.8491 19.1012 19.6629C19.1012 19.4767 18.9503 19.3259 18.7641 19.3259ZM6.96635 2.02246H9.88768V3.14605H6.96635V2.02246ZM5.84276 19.3259H5.61803V18.7641C5.61803 18.5779 5.46709 18.427 5.28096 18.427C5.09483 18.427 4.94389 18.5779 4.94389 18.7641V19.3259H4.71916V18.2023H5.84276V19.3259ZM8.08995 10.6741V11.254V19.3259H6.5169V17.8652C6.5169 17.679 6.36596 17.5281 6.17983 17.5281H4.38209C4.19592 17.5281 4.04502 17.679 4.04502 17.8652V19.3259H2.47197V6.96629H8.08995V10.6741ZM8.42702 6.29215H5.61803V3.82023H11.236V10.3371H8.76413V9.21348H9.77538C9.96155 9.21348 10.1124 9.06262 10.1124 8.87641C10.1124 8.6902 9.96151 8.53934 9.77538 8.53934H8.76413V7.41574H9.77538C9.96155 7.41574 10.1124 7.26488 10.1124 7.07867C10.1124 6.89246 9.96151 6.7416 9.77538 6.7416H8.76413V6.62926C8.76413 6.44301 8.61319 6.29215 8.42702 6.29215ZM14.3821 19.3259H8.76413V11.254V11.0112H14.3821V19.3259ZM17.5282 19.3259H15.0562V10.6741V10.2247C15.0562 10.0385 14.9053 9.88762 14.7192 9.88762C14.533 9.88762 14.3821 10.0385 14.3821 10.2247V10.337H13.708V10.2247C13.708 10.0385 13.557 9.88762 13.3709 9.88762C13.1848 9.88762 13.0338 10.0385 13.0338 10.2247V10.337H11.9102V3.48316V2.02246H17.5282V19.3259H17.5282Z" fill="black"/>
    <path d="M10.2248 18.6518C10.4109 18.6518 10.5618 18.5009 10.5618 18.3147V12.0226C10.5618 11.8364 10.4109 11.6855 10.2248 11.6855C10.0386 11.6855 9.8877 11.8364 9.8877 12.0226V18.3148C9.8877 18.5009 10.0386 18.6518 10.2248 18.6518Z" fill="black"/>
    <path d="M11.5732 18.6518C11.7593 18.6518 11.9102 18.5009 11.9102 18.3147V12.0226C11.9102 11.8364 11.7593 11.6855 11.5732 11.6855C11.387 11.6855 11.2361 11.8364 11.2361 12.0226V18.3148C11.236 18.5009 11.387 18.6518 11.5732 18.6518Z" fill="black"/>
    <path d="M12.9214 18.6518C13.1076 18.6518 13.2585 18.5009 13.2585 18.3147V12.0226C13.2585 11.8364 13.1076 11.6855 12.9214 11.6855C12.7353 11.6855 12.5844 11.8364 12.5844 12.0226V18.3148C12.5844 18.5009 12.7353 18.6518 12.9214 18.6518Z" fill="black"/>
    <path d="M13.3709 4.26955C13.5571 4.26955 13.708 4.11869 13.708 3.93248V3.48307C13.708 3.29686 13.557 3.146 13.3709 3.146C13.1848 3.146 13.0338 3.29686 13.0338 3.48307V3.93252C13.0338 4.11869 13.1847 4.26955 13.3709 4.26955Z" fill="black"/>
    <path d="M14.7192 4.26955C14.9053 4.26955 15.0562 4.11869 15.0562 3.93248V3.48307C15.0562 3.29686 14.9053 3.146 14.7192 3.146C14.533 3.146 14.3821 3.29686 14.3821 3.48307V3.93252C14.3821 4.11869 14.533 4.26955 14.7192 4.26955Z" fill="black"/>
    <path d="M16.0674 4.26955C16.2536 4.26955 16.4045 4.11869 16.4045 3.93248V3.48307C16.4045 3.29686 16.2536 3.146 16.0674 3.146C15.8813 3.146 15.7303 3.29686 15.7303 3.48307V3.93252C15.7303 4.11869 15.8812 4.26955 16.0674 4.26955Z" fill="black"/>
    <path d="M13.3709 6.5169C13.5571 6.5169 13.708 6.36604 13.708 6.17983V5.73038C13.708 5.54417 13.557 5.39331 13.3709 5.39331C13.1848 5.39331 13.0338 5.54417 13.0338 5.73038V6.17983C13.0338 6.36604 13.1847 6.5169 13.3709 6.5169Z" fill="black"/>
    <path d="M14.7192 6.5169C14.9053 6.5169 15.0562 6.36604 15.0562 6.17983V5.73038C15.0562 5.54417 14.9053 5.39331 14.7192 5.39331C14.533 5.39331 14.3821 5.54417 14.3821 5.73038V6.17983C14.3821 6.36604 14.533 6.5169 14.7192 6.5169Z" fill="black"/>
    <path d="M16.0674 6.5169C16.2536 6.5169 16.4045 6.36604 16.4045 6.17983V5.73038C16.4045 5.54417 16.2536 5.39331 16.0674 5.39331C15.8813 5.39331 15.7303 5.54417 15.7303 5.73038V6.17983C15.7303 6.36604 15.8812 6.5169 16.0674 6.5169Z" fill="black"/>
    <path d="M13.3709 8.76422C13.5571 8.76422 13.708 8.61336 13.708 8.42715V7.9777C13.708 7.79148 13.557 7.64062 13.3709 7.64062C13.1848 7.64062 13.0338 7.79148 13.0338 7.9777V8.42715C13.0338 8.61332 13.1847 8.76422 13.3709 8.76422Z" fill="black"/>
    <path d="M14.7192 8.76422C14.9053 8.76422 15.0562 8.61336 15.0562 8.42715V7.9777C15.0562 7.79148 14.9053 7.64062 14.7192 7.64062C14.533 7.64062 14.3821 7.79148 14.3821 7.9777V8.42715C14.3821 8.61332 14.533 8.76422 14.7192 8.76422Z" fill="black"/>
    <path d="M16.0674 8.76422C16.2536 8.76422 16.4045 8.61336 16.4045 8.42715V7.9777C16.4045 7.79148 16.2536 7.64062 16.0674 7.64062C15.8813 7.64062 15.7303 7.79148 15.7303 7.9777V8.42715C15.7303 8.61332 15.8812 8.76422 16.0674 8.76422Z" fill="black"/>
    <path d="M3.93265 9.6629C4.11882 9.6629 4.26972 9.51204 4.26972 9.32583V8.87638C4.26972 8.69017 4.11878 8.53931 3.93265 8.53931C3.74652 8.53931 3.59558 8.69017 3.59558 8.87638V9.32583C3.59558 9.512 3.74652 9.6629 3.93265 9.6629Z" fill="black"/>
    <path d="M5.28092 9.6629C5.46709 9.6629 5.61799 9.51204 5.61799 9.32583V8.87638C5.61799 8.69017 5.46705 8.53931 5.28092 8.53931C5.09479 8.53931 4.94385 8.69017 4.94385 8.87638V9.32583C4.94385 9.512 5.09475 9.6629 5.28092 9.6629Z" fill="black"/>
    <path d="M6.62931 9.6629C6.81548 9.6629 6.96638 9.51204 6.96638 9.32583V8.87638C6.96638 8.69017 6.81544 8.53931 6.62931 8.53931C6.44317 8.53931 6.29224 8.69017 6.29224 8.87638V9.32583C6.29224 9.512 6.44313 9.6629 6.62931 9.6629Z" fill="black"/>
    <path d="M3.93265 11.9102C4.11882 11.9102 4.26972 11.7594 4.26972 11.5731V11.1237C4.26972 10.9375 4.11878 10.7866 3.93265 10.7866C3.74652 10.7866 3.59558 10.9375 3.59558 11.1237V11.5731C3.59558 11.7593 3.74652 11.9102 3.93265 11.9102Z" fill="black"/>
    <path d="M5.28092 11.9102C5.46709 11.9102 5.61799 11.7594 5.61799 11.5731V11.1237C5.61799 10.9375 5.46705 10.7866 5.28092 10.7866C5.09479 10.7866 4.94385 10.9375 4.94385 11.1237V11.5731C4.94385 11.7593 5.09475 11.9102 5.28092 11.9102Z" fill="black"/>
    <path d="M6.62931 11.9102C6.81548 11.9102 6.96638 11.7594 6.96638 11.5731V11.1237C6.96638 10.9375 6.81544 10.7866 6.62931 10.7866C6.44317 10.7866 6.29224 10.9375 6.29224 11.1237V11.5731C6.29224 11.7593 6.44313 11.9102 6.62931 11.9102Z" fill="black"/>
    <path d="M3.93265 14.1573C4.11882 14.1573 4.26972 14.0064 4.26972 13.8202V13.3708C4.26972 13.1846 4.11878 13.0337 3.93265 13.0337C3.74652 13.0337 3.59558 13.1846 3.59558 13.3708V13.8202C3.59558 14.0064 3.74652 14.1573 3.93265 14.1573Z" fill="black"/>
    <path d="M5.28092 14.1573C5.46709 14.1573 5.61799 14.0064 5.61799 13.8202V13.3708C5.61799 13.1846 5.46705 13.0337 5.28092 13.0337C5.09479 13.0337 4.94385 13.1846 4.94385 13.3708V13.8202C4.94385 14.0064 5.09475 14.1573 5.28092 14.1573Z" fill="black"/>
    <path d="M6.62931 14.1573C6.81548 14.1573 6.96638 14.0064 6.96638 13.8202V13.3708C6.96638 13.1846 6.81544 13.0337 6.62931 13.0337C6.44317 13.0337 6.29224 13.1846 6.29224 13.3708V13.8202C6.29224 14.0064 6.44313 14.1573 6.62931 14.1573Z" fill="black"/>
    <path d="M3.93265 16.4044C4.11882 16.4044 4.26972 16.2535 4.26972 16.0673V15.6178C4.26972 15.4316 4.11878 15.2808 3.93265 15.2808C3.74652 15.2808 3.59558 15.4316 3.59558 15.6178V16.0673C3.59558 16.2535 3.74652 16.4044 3.93265 16.4044Z" fill="black"/>
    <path d="M5.28092 16.4044C5.46709 16.4044 5.61799 16.2535 5.61799 16.0673V15.6178C5.61799 15.4316 5.46705 15.2808 5.28092 15.2808C5.09479 15.2808 4.94385 15.4316 4.94385 15.6178V16.0673C4.94385 16.2535 5.09475 16.4044 5.28092 16.4044Z" fill="black"/>
    <path d="M6.62931 16.4044C6.81548 16.4044 6.96638 16.2535 6.96638 16.0673V15.6178C6.96638 15.4316 6.81544 15.2808 6.62931 15.2808C6.44317 15.2808 6.29224 15.4316 6.29224 15.6178V16.0673C6.29224 16.2535 6.44313 16.4044 6.62931 16.4044Z" fill="black"/>
    <path d="M16.0674 11.0113C16.2536 11.0113 16.4045 10.8604 16.4045 10.6742V10.2248C16.4045 10.0386 16.2536 9.8877 16.0674 9.8877C15.8813 9.8877 15.7303 10.0386 15.7303 10.2248V10.6742C15.7303 10.8604 15.8812 11.0113 16.0674 11.0113Z" fill="black"/>
    <path d="M16.0674 13.2584C16.2536 13.2584 16.4045 13.1075 16.4045 12.9213V12.4718C16.4045 12.2856 16.2536 12.1348 16.0674 12.1348C15.8813 12.1348 15.7303 12.2856 15.7303 12.4718V12.9213C15.7303 13.1075 15.8812 13.2584 16.0674 13.2584Z" fill="black"/>
    <path d="M16.0674 15.5057C16.2536 15.5057 16.4045 15.3548 16.4045 15.1686V14.7192C16.4045 14.5329 16.2536 14.3821 16.0674 14.3821C15.8813 14.3821 15.7303 14.5329 15.7303 14.7192V15.1686C15.7303 15.3548 15.8812 15.5057 16.0674 15.5057Z" fill="black"/>
    <path d="M16.0674 17.7527C16.2536 17.7527 16.4045 17.6019 16.4045 17.4157V16.9662C16.4045 16.78 16.2536 16.6292 16.0674 16.6292C15.8813 16.6292 15.7303 16.78 15.7303 16.9662V17.4157C15.7303 17.6018 15.8812 17.7527 16.0674 17.7527Z" fill="black"/>
    <path d="M10.1124 5.28092C10.1124 5.09471 9.96143 4.94385 9.7753 4.94385H7.07865C6.89248 4.94385 6.74158 5.09471 6.74158 5.28092C6.74158 5.46713 6.89252 5.61799 7.07865 5.61799H9.7753C9.96147 5.61799 10.1124 5.46713 10.1124 5.28092Z" fill="black"/>
  </svg>
