<svg width="50" height="50" viewBox="0 0 50 50" fill="none" xmlns="http://www.w3.org/2000/svg">
    <rect x="0.5" y="0.5" width="49" height="49" rx="14.5" fill="#FBFBFB" stroke="#E5E5E5"/>
    <g opacity="0.1">
        <path d="M33.4839 32.6328C33.2036 32.6328 32.9761 32.8603 32.9761 33.1406C32.9761 33.4209 33.2036 33.6484 33.4839 33.6484C33.7642 33.6484 33.9917 33.4209 33.9917 33.1406C33.9917 32.8603 33.7642 32.6328 33.4839 32.6328Z" fill="#13727E"/>
        <path d="M34.6484 13.4087V12.5234C34.6484 11.6834 33.965 11 33.125 11H16.875C16.035 11 15.3516 11.6834 15.3516 12.5234V13.4087C12.0393 19.526 12.0002 19.3443 12 19.6323C12 19.6325 12 19.6326 12 19.6328V20.6484C12 21.5286 12.5089 22.3472 13.3203 22.8127V36.4922C13.3203 36.7726 13.5477 37 13.8281 37H36.1719C36.4523 37 36.6797 36.7726 36.6797 36.4922V22.8127C37.4829 22.3476 38 21.5194 38 20.6484V19.6328C38 19.6326 38 19.6325 38 19.6323C37.9998 19.3412 37.9284 19.4663 34.6484 13.4087ZM36.6334 19.125H33.491L31.7983 14.0469H33.8404L36.6334 19.125ZM29.5703 20.1406H32.6172V20.6484C32.6172 21.4885 31.9338 22.1719 31.0938 22.1719C30.2537 22.1719 29.5703 21.4885 29.5703 20.6484V20.1406ZM29.4927 19.125L28.6463 14.0469H30.7277L32.4204 19.125H29.4927ZM16.3672 12.5234C16.3672 12.2434 16.595 12.0156 16.875 12.0156H33.125C33.405 12.0156 33.6328 12.2434 33.6328 12.5234V13.0312C33.1493 13.0312 16.8545 13.0312 16.3672 13.0312V12.5234ZM28.5547 20.1406V20.6484C28.5547 21.4885 27.8713 22.1719 27.0312 22.1719C26.1912 22.1719 25.5078 21.4885 25.5078 20.6484V20.1406H28.5547ZM25.5078 19.125V14.0469H27.6167L28.4631 19.125H25.5078ZM21.537 19.125L22.3833 14.0469H24.4922V19.125H21.537ZM24.4922 20.1406V20.6484C24.4922 21.4885 23.8088 22.1719 22.9688 22.1719C22.1287 22.1719 21.4453 21.4885 21.4453 20.6484V20.1406H24.4922ZM17.5795 19.125L19.2722 14.0469H21.3537L20.5073 19.125H17.5795ZM20.4297 20.1406V20.6484C20.4297 21.4885 19.7463 22.1719 18.9062 22.1719C18.0662 22.1719 17.3828 21.4885 17.3828 20.6484V20.1406H20.4297ZM16.1596 14.0469H18.2017L16.509 19.125H13.3666L16.1596 14.0469ZM13.0156 20.6484V20.1406H16.3672V20.6484C16.3672 21.4458 15.5684 22.1719 14.6914 22.1719C14.4703 22.1719 14.2412 22.1239 14.0279 22.0326C13.4224 21.7751 13.0156 21.2188 13.0156 20.6484ZM22.4609 35.9844H17.3828V31.6172H22.4609V35.9844ZM22.4609 30.6016H17.3828V26.2344H22.4609V30.6016ZM35.6641 35.9844H23.4766V25.7266C23.4766 25.4461 23.2492 25.2188 22.9688 25.2188H16.875C16.5946 25.2188 16.3672 25.4461 16.3672 25.7266V35.9844H14.3359V23.1627C14.4536 23.1787 14.5722 23.1875 14.6914 23.1875C15.3597 23.1875 16.0353 22.9227 16.5448 22.461C16.6575 22.359 16.759 22.2498 16.85 22.1354C17.3118 22.7722 18.0613 23.1875 18.9062 23.1875C19.736 23.1875 20.4739 22.7874 20.9375 22.1701C21.4011 22.7874 22.139 23.1875 22.9688 23.1875C23.7985 23.1875 24.5364 22.7874 25 22.1701C25.4636 22.7874 26.2015 23.1875 27.0312 23.1875C27.861 23.1875 28.5989 22.7874 29.0625 22.1701C29.5261 22.7874 30.264 23.1875 31.0938 23.1875C31.9387 23.1875 32.6882 22.7722 33.15 22.1354C33.241 22.2498 33.3425 22.3589 33.4552 22.461C33.9647 22.9227 34.6403 23.1875 35.3086 23.1875C35.4275 23.1875 35.5461 23.179 35.6641 23.1629V35.9844ZM36.9844 20.6484C36.9844 21.2349 36.5624 21.7976 35.9345 22.0487C35.7292 22.1305 35.5186 22.1719 35.3086 22.1719C34.4316 22.1719 33.6328 21.4458 33.6328 20.6484V20.1406H36.9844V20.6484Z" fill="black"/>
        <path d="M34.4995 30.6016H33.9917V25.7266C33.9917 25.4461 33.7643 25.2188 33.4839 25.2188H27.3901C27.1097 25.2188 26.8823 25.4461 26.8823 25.7266V30.6016H26.3745C26.0941 30.6016 25.8667 30.829 25.8667 31.1094C25.8667 31.3898 26.0941 31.6172 26.3745 31.6172H34.4995C34.7799 31.6172 35.0073 31.3898 35.0073 31.1094C35.0073 30.829 34.7799 30.6016 34.4995 30.6016ZM32.9761 30.6016H27.8979V26.2344H32.9761V30.6016Z" fill="#13727E"/>
        <path d="M31.4526 32.6328H27.3901C27.1097 32.6328 26.8823 32.8602 26.8823 33.1406C26.8823 33.421 27.1097 33.6484 27.3901 33.6484H31.4526C31.7331 33.6484 31.9604 33.421 31.9604 33.1406C31.9604 32.8602 31.7331 32.6328 31.4526 32.6328Z" fill="#13727E"/>
    </g>
</svg>
