<svg width="15" height="15" viewBox="0 0 15 15" fill="none" xmlns="http://www.w3.org/2000/svg">
    <path d="M7.5 15C11.6421 15 15 11.6421 15 7.5C15 3.35786 11.6421 0 7.5 0C3.35786 0 0 3.35786 0 7.5C0 11.6421 3.35786 15 7.5 15Z" fill="#F0F0F0"/>
    <path d="M14.5335 10.1085C14.835 9.29599 15 8.4172 15 7.49979C15 6.58239 14.835 5.7036 14.5335 4.89111H0.466494C0.165029 5.7036 0 6.58239 0 7.49979C0 8.4172 0.165029 9.29599 0.466494 10.1085L7.5 10.7607L14.5335 10.1085Z" fill="#0052B4"/>
    <path d="M7.49994 15.0002C10.7247 15.0002 13.4737 12.9649 14.5334 10.1089H0.466431C1.52613 12.9649 4.2752 15.0002 7.49994 15.0002Z" fill="#D80027"/>
</svg>
