<svg width="33" height="24" viewBox="0 0 33 24" fill="none" xmlns="http://www.w3.org/2000/svg">
    <path d="M18.8858 9.60539C18.7216 9.28275 18.4277 9.04114 18.0796 8.94248C17.7641 8.85304 17.4295 8.8855 17.1372 9.0336C16.8267 9.19081 16.5962 9.4596 16.4882 9.7903C16.3803 10.1207 16.4077 10.4731 16.5652 10.7826C16.7295 11.1055 17.0236 11.3474 17.3717 11.446C17.6871 11.5354 18.022 11.5029 18.314 11.3544C18.6239 11.1975 18.8539 10.9292 18.962 10.5987C19.0703 10.2682 19.0432 9.91566 18.8858 9.60539ZM17.863 10.4653C17.7759 10.5097 17.6958 10.5014 17.6438 10.4867C17.5608 10.4631 17.4934 10.4078 17.4542 10.3305C17.4177 10.2587 17.4113 10.1768 17.4364 10.1001C17.4614 10.0228 17.5152 9.9601 17.588 9.9233C17.6561 9.88886 17.7341 9.88119 17.8078 9.90206C17.8908 9.92558 17.958 9.98088 17.9969 10.0573C18.0334 10.1292 18.0396 10.2115 18.0144 10.2886C17.9893 10.3658 17.9354 10.4285 17.863 10.4653Z" fill="#1C1C1C"/>
    <path d="M9.86211 8.30146C9.08791 8.08201 8.27972 8.53287 8.0604 9.30664C7.84108 10.0804 8.29245 10.8884 9.06664 11.1079C9.84042 11.3272 10.6484 10.8761 10.8677 10.1023C11.0872 9.3288 10.636 8.52082 9.86211 8.30146ZM9.33862 10.1483C9.09358 10.0789 8.95047 9.82319 9.01984 9.57844C9.08918 9.33383 9.34503 9.19122 9.59021 9.26071C9.83496 9.33009 9.97765 9.58566 9.90832 9.83027C9.83919 10.0752 9.58366 10.2178 9.33862 10.1483Z" fill="#1C1C1C"/>
    <path d="M30.9626 14.1281L20.7983 4.68417C20.6657 4.56091 20.4768 4.51934 20.3048 4.5753C20.1326 4.63123 20.0045 4.7761 19.9696 4.95386L19.5887 6.9018L17.4384 5.72601C17.4991 5.5843 17.4917 5.42096 17.4145 5.28423C17.3254 5.12644 17.1574 5.02925 16.9761 5.03097L3.86866 5.15779C3.69346 5.15942 3.53195 5.25306 3.44338 5.40409C3.35478 5.55525 3.35196 5.74178 3.43599 5.89551L9.56045 17.0932C9.62553 17.2119 9.73485 17.2975 9.86191 17.3336C9.90157 17.3448 9.94269 17.3514 9.98493 17.3525C10.1625 17.357 10.3291 17.2668 10.4222 17.1157L12.3333 14.0165L12.6808 18.6405C12.6939 18.8162 12.7988 18.9717 12.9567 19.0501C12.9845 19.0636 13.0129 19.0748 13.0421 19.083C13.1791 19.1219 13.3278 19.1006 13.4495 19.0215L17.7667 16.2178L17.1397 19.4256C17.105 19.6038 17.1697 19.7869 17.3089 19.9035C17.3636 19.9494 17.4267 19.9822 17.493 20.001C17.5954 20.03 17.7062 20.0262 17.8089 19.9862L21.4395 18.581L30.8028 14.9584C30.9632 14.8964 31.0802 14.7562 31.1125 14.5874C31.1451 14.4187 31.0885 14.2451 30.9626 14.1281ZM26.7525 12.47C26.9134 12.5156 27.0073 12.6838 26.9616 12.8448C26.9159 13.0062 26.7478 13.1001 26.5868 13.0545C26.4253 13.0087 26.3313 12.8403 26.377 12.6791C26.4228 12.5181 26.5911 12.4243 26.7525 12.47ZM24.3995 9.39169L20.5315 7.27714L20.7763 6.0252L24.3995 9.39169ZM22.1524 10.2817C22.0475 10.652 21.6607 10.8679 21.2903 10.7629C20.9199 10.6579 20.7042 10.2712 20.8091 9.90094C20.914 9.53069 21.3006 9.31473 21.671 9.41972C22.0414 9.52471 22.2574 9.91129 22.1524 10.2817ZM8.03537 6.82343C8.15248 6.85662 8.22064 6.97913 8.18736 7.09653C8.15405 7.21408 8.03166 7.28288 7.91455 7.24968C7.797 7.21637 7.72846 7.0936 7.76182 6.97591C7.79509 6.85851 7.91796 6.79015 8.03537 6.82343ZM10.0236 15.8621L4.71013 6.14702L7.16821 6.12312C6.99843 6.27247 6.86838 6.4707 6.80227 6.70394C6.61897 7.35064 6.9959 8.02578 7.64247 8.20904C8.28861 8.39219 8.96346 8.01517 9.14676 7.36847C9.2808 6.89559 9.11526 6.40751 8.76367 6.10778L16.0828 6.03674L10.0236 15.8621ZM13.6125 17.7265L13.2284 12.6155L16.9427 6.59174L20.6465 8.61646C20.2716 8.82865 19.9764 9.18247 19.8499 9.62876C19.595 10.528 20.1192 11.4671 21.0186 11.722C21.918 11.977 22.8571 11.4527 23.112 10.5534C23.1646 10.3678 23.1835 10.1805 23.1734 9.99787L24.4135 10.6758L13.6125 17.7265ZM24.4251 15.7778C24.1219 15.6919 23.945 15.3755 24.0309 15.0726C24.1168 14.7693 24.4336 14.5923 24.7367 14.6783C25.0396 14.7641 25.2161 15.0809 25.1301 15.3842C25.0443 15.6871 24.728 15.8637 24.4251 15.7778ZM26.0699 15.7212C26.077 15.6998 26.0836 15.6782 26.0898 15.6563C26.3257 14.8239 25.8408 13.9549 25.0089 13.7191C24.1767 13.4832 23.3076 13.9686 23.0717 14.8009C22.8705 15.5108 23.1946 16.2476 23.8109 16.5951L18.2924 18.7306L18.9311 15.4621L25.688 11.0739C25.7929 11.0057 25.866 10.901 25.8974 10.7833L26.6275 11.4617C26.0768 11.4797 25.5758 11.8495 25.4178 12.4071C25.2222 13.0973 25.6246 13.818 26.315 14.0138C27.005 14.2093 27.7256 13.8069 27.9212 13.1167C27.9598 12.9804 27.9752 12.8428 27.9695 12.7085L29.7001 14.3165L26.0699 15.7212Z" fill="#1C1C1C"/>
</svg>
