<svg width="25" height="25" viewBox="0 0 25 25" fill="none" xmlns="http://www.w3.org/2000/svg">
    <g clip-path="url(#clip0)">
        <circle cx="19.5" cy="5.5" r="5.5" fill="#009688" fill-opacity="0.2"/>
        <path d="M20.6802 3.67756C20.4898 3.86848 20.4898 4.17748 20.6802 4.3684C20.8711 4.55876 21.1801 4.55876 21.371 4.3684C21.5614 4.17748 21.5614 3.86848 21.371 3.67756C21.1801 3.4872 20.8711 3.4872 20.6802 3.67756Z" fill="#1C1C1C"/>
        <path d="M20.6793 0.0061258C17.8038 0.117134 14.3122 1.47517 11.5334 3.90475C9.75214 3.51431 7.8755 4.056 6.57983 5.35167C6.00877 5.92253 6.00877 6.8516 6.57983 7.42267L8.16637 9.0092C7.16196 11.9057 6.97027 14.9977 6.9449 16.5755C6.07515 15.9996 5.05567 15.6903 3.9887 15.6903C2.55418 15.6903 1.20588 16.2487 0.191547 17.2631C0.00100229 17.4536 0.00100229 17.7628 0.191547 17.9533C1.20588 18.9675 2.55418 19.5261 3.9887 19.5261C4.63586 19.5261 5.26529 19.4121 5.85447 19.1941C5.63665 19.7834 5.52259 20.4129 5.52259 21.06C5.52259 22.4944 6.08106 23.8428 7.0952 24.857C7.19057 24.9524 7.3155 25 7.44043 25C7.56536 25 7.69029 24.9524 7.78566 24.857C8.7998 23.8428 9.35846 22.4944 9.35846 21.06C9.35846 19.9929 9.04909 18.9734 8.47307 18.1036C10.0512 18.0785 13.1432 17.887 16.0397 16.8825L17.6261 18.4689C18.1969 19.0398 19.126 19.0398 19.6969 18.4689C20.9925 17.1732 21.5342 15.2968 21.144 13.5157C23.2827 11.0672 24.9318 7.60577 25.0426 4.31807C25.0922 2.84464 24.7409 1.58389 24.1027 0.945877C23.4566 0.299858 22.177 -0.0514762 20.6793 0.0061258ZM7.2701 6.04213C8.1616 5.15063 9.38936 4.69554 10.6242 4.76306C9.80383 5.6124 9.10822 6.70245 8.55032 8.01223L7.2701 6.7322C7.07994 6.54204 7.07994 6.23229 7.2701 6.04213ZM1.26977 17.6083C2.04149 16.9979 2.98963 16.6666 3.9887 16.6666C4.98777 16.6666 5.93591 16.9979 6.70763 17.6083C5.93591 18.2186 4.98777 18.5498 3.9887 18.5498C2.98963 18.5498 2.04149 18.2185 1.26977 17.6083ZM7.44043 23.779C6.83008 23.0072 6.49896 22.0591 6.49896 21.06C6.49896 20.061 6.83008 19.1128 7.44043 18.3411C8.05078 19.113 8.38209 20.061 8.38209 21.06C8.38209 22.0591 8.05078 23.0072 7.44043 23.779ZM19.0066 17.7784C18.8164 17.9688 18.5067 17.9688 18.3165 17.7784L17.0363 16.4984C18.3463 15.9403 19.4363 15.2449 20.2857 14.4245C20.3532 15.6594 19.8981 16.8871 19.0066 17.7784ZM24.0668 4.28527C24.0214 5.63548 23.6544 7.18387 23.0313 8.66969C21.6674 9.00386 20.1787 8.7395 18.9116 7.92945C18.6846 7.7843 18.3827 7.85067 18.2374 8.07803C18.0922 8.30501 18.1586 8.60694 18.3858 8.75228C19.6347 9.5505 21.0946 9.91176 22.5293 9.74868C21.9157 10.9448 21.1503 12.0545 20.2462 13.0572V13.0574C20.0692 13.2538 19.8844 13.4486 19.6969 13.6359C16.9974 16.3353 11.7484 17.1439 7.92013 17.1284C7.90373 13.3036 8.70767 8.05686 11.4129 5.35186C11.6017 5.16284 11.7962 4.9784 11.9917 4.80273C12.995 3.8975 14.1051 3.13151 15.3012 2.51753C15.1887 3.52461 15.3325 4.57442 15.7265 5.55613C15.827 5.80676 16.1116 5.92749 16.3613 5.82736C16.6115 5.72684 16.733 5.44265 16.6325 5.1924C16.2173 4.15785 16.1297 3.039 16.3796 2.0159C17.8485 1.39983 19.3801 1.03342 20.7169 0.981735C22.0746 0.929283 23.0488 1.27299 23.4124 1.63634C23.7704 1.99435 24.1116 2.95241 24.0668 4.28527Z" fill="#1C1C1C"/>
        <path d="M16.8382 6.70441C16.6479 6.89533 16.6479 7.20432 16.8382 7.39524C17.0292 7.5856 17.3382 7.5856 17.5291 7.39524C17.7194 7.20432 17.7194 6.89533 17.5291 6.70441C17.3382 6.51406 17.0292 6.51406 16.8382 6.70441Z" fill="#1C1C1C"/>
        <path d="M226.467 -113.312C203.12 -131.919 170.167 -147.153 128.523 -158.589C48.432 -180.583 -41.885 -182.957 -76.999 -182.957C-167.981 -182.957 -242 -108.937 -242 -17.955V51.955C-242 142.938 -167.981 216.957 -76.999 216.957C-35.046 216.957 -3.539 203.815 29.818 189.901C64.314 175.512 99.983 160.634 150.149 160.634C216.235 160.634 270 106.868 270 40.783V-29.127C270 -61.966 255.353 -90.29 226.467 -113.312ZM218.046 57.642C221.832 61.665 228.161 61.854 232.182 58.069C238.964 51.683 244.93 44.568 250 36.907V40.783C250 95.8419 205.207 140.634 150.149 140.634C95.979 140.634 58.431 156.296 22.119 171.442C-9.33801 184.563 -39.05 196.957 -76.999 196.957C-153.819 196.957 -216.868 136.904 -221.692 61.279C-193.612 112.352 -139.283 147.045 -76.999 147.045C-35.046 147.045 -3.539 133.903 29.818 119.989C64.314 105.6 99.983 90.722 150.149 90.722C153.876 90.722 157.641 90.546 161.341 90.2C166.84 89.685 170.88 84.81 170.365 79.311C169.85 73.813 164.969 69.774 159.476 70.288C156.393 70.576 153.256 70.723 150.149 70.723C95.979 70.723 58.431 86.385 22.119 101.531C-9.33801 114.652 -39.05 127.046 -76.999 127.046C-156.953 127.046 -222 61.999 -222 -17.954C-222 -97.908 -156.953 -162.956 -76.999 -162.956C-42.696 -162.956 45.482 -160.651 123.227 -139.302C207.347 -116.201 250 -79.133 250 -29.127C250 -1.83203 238.508 24.642 218.472 43.506C214.451 47.292 214.26 53.621 218.046 57.642Z" fill="#1C1C1C"/>
        <path d="M223.756 -56.067C213.837 -75.671 191.767 -92.613 158.157 -106.421C130.962 -117.594 101.221 -124.652 81.06 -128.607C68.977 -130.976 56.315 -133.092 43.425 -134.894C37.958 -135.666 32.902 -131.846 32.136 -126.375C31.371 -120.905 35.185 -115.852 40.655 -115.087C53.185 -113.335 65.484 -111.28 77.211 -108.98C145.901 -95.509 192.81 -72.932 205.91 -47.04C208.662 -41.599 210 -35.74 210 -29.128C210 3.87299 183.151 30.722 150.149 30.722C116.781 30.722 84.378 36.175 51.088 47.394C36.75 52.227 22.828 58.004 9.36501 63.592C0.460007 67.287 -8.748 71.109 -17.888 74.572C-40.953 83.314 -58.632 87.044 -76.999 87.044C-134.897 87.044 -182.001 39.941 -182.001 -17.956C-182.001 -75.854 -134.897 -122.958 -76.999 -122.958C-65.704 -122.958 -54.237 -122.744 -42.919 -122.322C-40.998 -122.251 -39.075 -122.174 -37.151 -122.089C-31.638 -121.839 -26.963 -126.121 -26.72 -131.639C-26.476 -137.156 -30.752 -141.827 -36.269 -142.07C-38.239 -142.157 -40.209 -142.236 -42.175 -142.309C-53.74 -142.74 -65.457 -142.958 -77 -142.958C-145.926 -142.958 -202.002 -86.883 -202.002 -17.956C-202.002 50.969 -145.927 107.044 -77 107.044C-56.065 107.044 -36.267 102.926 -10.801 93.274C-1.37 89.7 7.98401 85.818 17.031 82.063C30.184 76.605 43.785 70.96 57.475 66.346C88.673 55.832 118.987 50.721 150.149 50.721C194.179 50.723 230 14.902 230 -29.127C230 -38.949 227.957 -47.761 223.756 -56.067Z" fill="#1C1C1C"/>
    </g>
    <defs>
        <clipPath id="clip0">
            <rect width="25" height="25" fill="white"/>
        </clipPath>
    </defs>
</svg>
