<svg width="22" height="22" viewBox="0 0 22 22" fill="none" xmlns="http://www.w3.org/2000/svg">
    <path d="M19.7045 2.2944C17.9829 0.568535 15.1832 0.568535 13.4616 2.2944L2.01552 13.7362C1.92603 13.8257 1.87063 13.9408 1.85359 14.0643L1.00557 20.3456C0.980001 20.5246 1.04392 20.7036 1.1675 20.8272C1.27404 20.9337 1.42319 20.9976 1.57233 20.9976C1.5979 20.9976 1.62347 20.9976 1.64904 20.9934L5.43315 20.482C5.74849 20.4394 5.97009 20.1496 5.92747 19.8343C5.88486 19.5189 5.59508 19.2973 5.27974 19.3399L2.24563 19.749L2.83797 15.3683L7.44879 19.9792C7.55532 20.0857 7.70447 20.1496 7.85362 20.1496C8.00277 20.1496 8.15192 20.09 8.25845 19.9792L19.7045 8.53733C20.5398 7.7021 21 6.59414 21 5.41373C21 4.23333 20.5398 3.12537 19.7045 2.2944ZM13.6832 3.70065L15.6051 5.62254L5.16042 16.0672L3.23854 14.1453L13.6832 3.70065ZM7.85788 18.7604L5.97861 16.8811L16.4233 6.43646L18.3025 8.31574L7.85788 18.7604ZM19.1037 7.49329L14.5056 2.89525C15.0895 2.41372 15.8182 2.14951 16.5852 2.14951C17.4588 2.14951 18.277 2.49042 18.8949 3.10406C19.5128 3.7177 19.8494 4.54015 19.8494 5.41373C19.8494 6.18504 19.5852 6.90948 19.1037 7.49329Z" fill="#748AA1" stroke="#748AA1" stroke-width="0.5"/>
</svg>
