<svg width="19" height="22" viewBox="0 0 19 22" fill="none" xmlns="http://www.w3.org/2000/svg">
    <path d="M1 5.49756H2.88889H18" stroke="#E21B1B" stroke-width="2" stroke-linecap="round" stroke-linejoin="round"/>
    <path d="M18 5.79755C18 5.24526 17.5523 4.79755 17 4.79755C16.4477 4.79755 16 5.24526 16 5.79755H18ZM4 5.79755C4 5.24526 3.55228 4.79755 3 4.79755C2.44772 4.79755 2 5.24526 2 5.79755H4ZM5 5.79756C5 6.34984 5.44772 6.79756 6 6.79756C6.55228 6.79756 7 6.34984 7 5.79756H5ZM13 5.79756C13 6.34984 13.4477 6.79756 14 6.79756C14.5523 6.79756 15 6.34984 15 5.79756H13ZM16 5.79755V19.0975H18V5.79755H16ZM16 19.0975C16 19.5469 15.6012 19.9975 15 19.9975V21.9975C16.6079 21.9975 18 20.7469 18 19.0975H16ZM15 19.9975H5V21.9975H15V19.9975ZM5 19.9975C4.39876 19.9975 4 19.5469 4 19.0975H2C2 20.7469 3.3921 21.9975 5 21.9975V19.9975ZM4 19.0975V5.79755H2V19.0975H4ZM7 5.79756V3.89756H5V5.79756H7ZM7 3.89756C7 3.44822 7.39876 2.99756 8 2.99756V0.997559C6.3921 0.997559 5 2.24822 5 3.89756H7ZM8 2.99756H12V0.997559H8V2.99756ZM12 2.99756C12.6012 2.99756 13 3.44822 13 3.89756H15C15 2.24822 13.6079 0.997559 12 0.997559V2.99756ZM13 3.89756V5.79756H15V3.89756H13Z" fill="#E21B1B"/>
</svg>
